HIERARCHY
ROOT Hips
{
	OFFSET -3.958830 18.904000 13.208200
	CHANNELS 6 Xposition Yposition Zposition Zrotation Yrotation Xrotation 
	JOINT LHipJoint
	{
		OFFSET 0.000000 0.000000 0.000000
		CHANNELS 3 Zrotation Yrotation Xrotation
		JOINT LeftUpLeg
		{
			OFFSET 1.800000 -1.400000 0.085000
			CHANNELS 3 Zrotation Yrotation Xrotation
			JOINT LeftLeg
			{
				OFFSET 2.215000 -6.000000 0.000000
				CHANNELS 3 Zrotation Yrotation Xrotation
				JOINT LeftFoot
				{
					OFFSET 2.500000 -6.900000 0.000000
					CHANNELS 3 Zrotation Yrotation Xrotation
					JOINT LeftToeBase
					{
						OFFSET 0.200000 -0.500000 1.950000
						CHANNELS 3 Zrotation Yrotation Xrotation
						End Site
						{
							OFFSET 0.000000 0.000000 0.000000
						}
					}
				}
			}
		}
	}
	JOINT RHipJoint
	{
		OFFSET 0.000000 0.000000 0.000000
		CHANNELS 3 Zrotation Yrotation Xrotation
		JOINT RightUpLeg
		{
			OFFSET -1.800000 -1.400000 0.085000
			CHANNELS 3 Zrotation Yrotation Xrotation
			JOINT RightLeg
			{
				OFFSET -2.215000 -6.000000 0.000000
				CHANNELS 3 Zrotation Yrotation Xrotation
				JOINT RightFoot
				{
					OFFSET -2.500000 -6.900000 0.000000
					CHANNELS 3 Zrotation Yrotation Xrotation
					JOINT RightToeBase
					{
						OFFSET -0.200000 -0.500000 1.950000
						CHANNELS 3 Zrotation Yrotation Xrotation
						End Site
						{
							OFFSET 0.000000 0.000000 0.000000
						}
					}
				}
			}
		}
	}
	JOINT LowerBack
	{
		OFFSET 0.000000 0.000000 0.000000
		CHANNELS 3 Zrotation Yrotation Xrotation
		JOINT Spine
		{
			OFFSET -0.087000 1.940000 -0.288900
			CHANNELS 3 Zrotation Yrotation Xrotation
			JOINT Spine1
			{
				OFFSET 0.000000 1.950000 0.060000
				CHANNELS 3 Zrotation Yrotation Xrotation
				JOINT Neck
				{
					OFFSET 0.000000 0.000000 0.000000
					CHANNELS 3 Zrotation Yrotation Xrotation
					JOINT Neck1
					{
						OFFSET 0.000000 1.600000 0.340000
						CHANNELS 3 Zrotation Yrotation Xrotation
						JOINT Head
						{
							OFFSET 0.000000 1.667000 -0.240000
							CHANNELS 3 Zrotation Yrotation Xrotation
							End Site
							{
								OFFSET 0.000000 0.000000 0.000000
							}
						}
					}
				}
				JOINT LeftShoulder
				{
					OFFSET 0.000000 0.000000 0.000000
					CHANNELS 3 Zrotation Yrotation Xrotation
					JOINT LeftArm
					{
						OFFSET 2.700000 1.550000 -0.730000
						CHANNELS 3 Zrotation Yrotation Xrotation
						JOINT LeftForeArm
						{
							OFFSET 5.450000 0.000000 0.000000
							CHANNELS 3 Zrotation Yrotation Xrotation
							JOINT LeftHand
							{
								OFFSET 3.450000 0.000000 0.000000
								CHANNELS 3 Zrotation Yrotation Xrotation
								JOINT LeftHandIndex1
								{
									OFFSET 0.750000 0.000000 0.000000
									CHANNELS 3 Zrotation Yrotation Xrotation
									End Site
									{
										OFFSET 0.000000 0.000000 0.000000
									}
								}
							}
						}
					}
				}
				JOINT RightShoulder
				{
					OFFSET 0.000000 0.000000 0.000000
					CHANNELS 3 Zrotation Yrotation Xrotation
					JOINT RightArm
					{
						OFFSET -2.700000 1.550000 -0.730000
						CHANNELS 3 Zrotation Yrotation Xrotation
						JOINT RightForeArm
						{
							OFFSET -5.450000 0.000000 0.000000
							CHANNELS 3 Zrotation Yrotation Xrotation
							JOINT RightHand
							{
								OFFSET -3.450000 0.000000 0.000000
								CHANNELS 3 Zrotation Yrotation Xrotation
								JOINT RightHandIndex1
								{
									OFFSET -0.750000 0.000000 0.000000
									CHANNELS 3 Zrotation Yrotation Xrotation
									End Site
									{
										OFFSET 0.000000 0.000000 0.000000
									}
								}
							}
						}
					}
				}
			}
		}
	}
}
MOTION
Frames: 7
Frame Time: 0.016667
-0.677190 17.130900 -5.892070 -2.647979 -7.789715 5.377675 -14.979215 12.870161 2.756629 3.466298 -0.947396 -10.571291 -9.240969 5.493069 7.664374 -0.265859 3.996364 3.437089 -0.172050 -0.406040 -0.281600 18.531885 -10.844470 2.846451 -3.477010 0.420810 -9.933544 11.173987 -5.185445 6.896374 0.021616 -3.814429 3.350645 -0.173810 0.710060 0.073190 -4.159856 -0.953548 -6.829992 10.691483 0.633742 2.042939 -2.931631 0.216328 1.151642 1.245566 -2.500848 -4.620984 -6.080279 5.798665 37.181941 0.649540 3.009380 9.097690 -27.810796 1.194934 -0.177206 -52.202294 -0.976564 -3.136156 -10.307404 -9.896853 -0.500603 -4.191712 2.862762 0.086020 0.437990 -0.471410 0.156820 25.042482 0.450255 1.340327 53.965682 0.717396 -5.576753 11.407577 12.183035 -0.286425 2.361539 -1.257456 -0.315660 0.225200 0.269120 -0.011110 
-0.678390 17.133050 -5.891980 -2.609844 -8.127991 5.277159 -14.975967 12.884471 2.763735 3.400970 -0.937654 -10.536060 -9.220385 5.524971 7.867797 -0.274438 3.990278 3.429738 -0.162470 -0.396630 -0.267320 18.527625 -10.865091 2.849118 -3.565091 0.401718 -9.842455 11.073819 -5.194162 6.982493 0.012221 -3.802527 3.353064 -0.171390 0.688560 0.065080 -4.152685 -0.942375 -6.849447 10.597519 0.753242 2.189758 -2.904314 0.366728 1.083990 1.284497 -2.489397 -4.729575 -6.126029 5.824336 37.828012 0.700050 3.048760 8.751940 -27.899995 1.091045 -0.101686 -52.147523 -0.752641 -3.275773 -10.201336 -10.140220 -0.511847 -4.170135 2.848581 0.108120 0.419840 -0.455780 0.151520 25.060829 0.629202 1.425563 54.028631 0.724092 -5.602891 11.259545 12.219444 -0.272927 2.360779 -1.241874 -0.317350 0.228750 0.264740 -0.020880 
-0.681530 17.136370 -5.898720 -2.697797 -8.639003 5.148774 -14.965154 12.896155 2.766336 3.422692 -0.935478 -10.573431 -9.160911 5.555131 8.149060 -0.283720 3.982259 3.413029 -0.147890 -0.383960 -0.250450 18.530102 -10.893908 2.858674 -3.521062 0.381631 -9.681205 10.886499 -5.189448 7.043023 -0.000887 -3.793247 3.347987 -0.171090 0.660730 0.073030 -4.164141 -0.909711 -6.872693 10.676475 0.989600 2.424869 -2.850768 0.631316 1.145069 1.333997 -2.454004 -4.856351 -6.176023 5.773002 38.703364 0.610790 3.057960 8.369570 -28.180340 0.793442 -0.011780 -51.953947 -0.638391 -3.390769 -10.021350 -10.391249 -0.531910 -4.153227 2.850017 0.127860 0.403400 -0.435190 0.141590 25.235525 0.993681 1.572481 53.883207 0.731633 -5.673467 11.115377 12.437978 -0.254601 2.355428 -1.235109 -0.305580 0.216650 0.263830 -0.030010 
-0.681500 17.133410 -5.896330 -2.765468 -8.627272 5.041427 -14.954102 12.894408 2.754291 3.455295 -0.924844 -10.517061 -9.053799 5.561199 8.312615 -0.279288 3.973160 3.403297 -0.139980 -0.375980 -0.247450 18.540271 -10.909200 2.862918 -3.559645 0.342387 -9.467252 10.896232 -5.205387 7.021600 -0.009211 -3.817276 3.328763 -0.169720 0.643250 0.080730 -4.194839 -0.878426 -6.866735 10.871267 1.048895 2.417715 -2.898898 0.676520 1.258608 1.317475 -2.458037 -4.853589 -6.258039 5.665144 39.115515 0.624240 2.876540 8.496610 -28.290215 0.780578 -0.002202 -51.830593 -0.603215 -3.458798 -10.047574 -10.568137 -0.522701 -4.142606 2.873679 0.125030 0.394980 -0.429130 0.136880 25.353312 1.007503 1.590567 53.837876 0.660456 -5.789370 10.929669 12.769173 -0.264268 2.357858 -1.247864 -0.291650 0.195590 0.261510 -0.029760 
-0.681960 17.126160 -5.886980 -2.862265 -8.086143 4.988881 -14.950132 12.895382 2.747578 3.630255 -0.909047 -10.387252 -9.040950 5.549701 8.176045 -0.279563 3.993387 3.404460 -0.146420 -0.395410 -0.244090 18.547476 -10.913331 2.852550 -3.358358 0.323161 -9.400495 10.728418 -5.222849 7.216717 -0.003643 -3.822864 3.332836 -0.178810 0.649120 0.083770 -4.215192 -0.875471 -6.852782 11.099849 0.910157 2.289393 -2.965026 0.506182 1.353397 1.352669 -2.379964 -4.850237 -6.150618 5.451217 39.271110 0.261120 2.848670 8.952340 -28.054387 0.852505 0.006517 -51.953927 -0.647751 -3.438476 -10.232135 -10.575557 -0.508255 -4.150827 2.872092 0.124470 0.403380 -0.437950 0.136370 25.042749 0.806928 1.552543 54.126387 0.648394 -5.842904 10.800907 12.813216 -0.277699 2.356990 -1.249862 -0.297120 0.191870 0.262890 -0.035010 
-0.678710 17.120160 -5.881300 -2.816554 -7.848858 4.863670 -14.948274 12.901864 2.754215 3.601935 -0.880280 -10.173693 -9.077391 5.550967 8.091620 -0.277280 4.001652 3.400065 -0.134710 -0.387310 -0.228300 18.548625 -10.925052 2.836979 -3.340487 0.319962 -9.433767 10.556948 -5.252001 7.529252 -0.009224 -3.816031 3.333161 -0.178330 0.636430 0.089400 -4.220965 -0.873125 -6.848922 11.184051 0.869098 2.305832 -3.041652 0.459486 1.451358 1.404416 -2.344858 -4.863043 -6.149937 5.356163 39.671651 -0.056690 2.947770 8.824770 -27.844955 0.925857 -0.013748 -51.970208 -0.768510 -3.383364 -10.531603 -10.587107 -0.481199 -4.144547 2.872613 0.133330 0.398230 -0.427010 0.136440 24.728604 0.683105 1.522414 54.433596 0.744975 -5.863012 10.597379 12.824230 -0.289882 2.358440 -1.247922 -0.291390 0.186590 0.255380 -0.040140 
-0.677630 17.112760 -5.875730 -2.691509 -7.711861 4.779507 -14.955395 12.908946 2.763393 3.502635 -0.862949 -10.040690 -9.105400 5.546816 8.008174 -0.272581 4.004340 3.395995 -0.133230 -0.386450 -0.219420 18.541070 -10.931205 2.820313 -3.390507 0.322590 -9.500971 10.411183 -5.272271 7.797257 -0.009308 -3.808240 3.329580 -0.180150 0.626910 0.094880 -4.200218 -0.882747 -6.843767 11.018917 0.862466 2.312482 -3.003197 0.451777 1.504422 1.433542 -2.284623 -4.842060 -6.074857 5.288479 39.906658 -0.353190 3.104890 8.777680 -27.629847 1.075524 -0.048809 -51.953044 -0.843141 -3.354821 -10.787922 -10.633618 -0.453641 -4.145531 2.873779 0.134530 0.396290 -0.419330 0.131510 24.482207 0.494995 1.451212 54.714429 0.840666 -5.872674 10.475774 12.837130 -0.296272 2.363708 -1.245239 -0.286160 0.180170 0.254090 -0.043190 
